<svg id="Layer_1_copy" data-name="Layer 1 copy" xmlns="http://www.w3.org/2000/svg" xmlns:xlink="http://www.w3.org/1999/xlink" viewBox="0 0 1423 624"><defs><style>.cls-1{fill:#fff;}.cls-2{fill:#004dc4;}.cls-3{fill:url(#linear-gradient);}.cls-4{fill:url(#linear-gradient-2);}.cls-5{fill:#c7daea;}.cls-6{fill:#ffaf99;}.cls-7{fill:#0a1d35;}.cls-8{fill:none;stroke:#0a1d35;stroke-width:0.5px;}.cls-9{fill:#e7e7e7;}.cls-10{fill:#f1c6b8;}.cls-11{fill:#2900cd;}.cls-12{fill:#e5f4f7;}.cls-13{fill:#98bff5;}.cls-14{fill:#404040;}.cls-15{fill:#c5c5c5;}.cls-16{fill:#a7a7a7;}.cls-17{fill:#f9b09e;}.cls-18{fill:#420103;}.cls-19{mask:url(#mask);}.cls-20{fill:#52352b;}.cls-21{mask:url(#mask-2);}.cls-22{fill:#86b0f1;}.cls-23{fill:#2b74b9;}.cls-24{fill:#ffc0ab;}.cls-25{fill:#ffdacc;}.cls-26{fill:#c3f5ff;}.cls-27{fill:#1d232a;}.cls-28{mask:url(#mask-3);}.cls-29{mask:url(#mask-4);}.cls-30{fill:#ebebeb;}.cls-31{fill:url(#linear-gradient-3);}.cls-32{fill:url(#linear-gradient-4);}</style><linearGradient id="linear-gradient" x1="182.99" y1="1247.24" x2="202.6" y2="1247.17" gradientTransform="matrix(54.03, 0, 0, -28.42, -9061.31, 35530.7)" gradientUnits="userSpaceOnUse"><stop offset="0" stop-color="#daf1fb"/><stop offset="0.53" stop-color="#c7d4e3"/><stop offset="1" stop-color="#98d4e3"/></linearGradient><linearGradient id="linear-gradient-2" x1="250.33" y1="1177.94" x2="270.04" y2="1177.71" gradientTransform="matrix(10.29, 0, 0, -8.08, -1551.17, 9669.69)" xlink:href="#linear-gradient"/><mask id="mask" x="1310.34" y="302.6" width="23.26" height="7.4" maskUnits="userSpaceOnUse"><g id="mask-21"><polygon id="path-20" class="cls-1" points="1310.34 302.6 1333.6 302.6 1333.6 310 1310.34 310 1310.34 302.6"/></g></mask><mask id="mask-2" x="1345.54" y="302.6" width="23.29" height="7.4" maskUnits="userSpaceOnUse"><g id="mask-23"><polygon id="path-22" class="cls-1" points="1345.54 302.6 1368.84 302.6 1368.84 310 1345.54 310 1345.54 302.6"/></g></mask><mask id="mask-3" x="58.01" y="306.06" width="23.47" height="6.68" maskUnits="userSpaceOnUse"><g id="mask-9"><polygon id="path-8" class="cls-1" points="58.01 306.06 81.47 306.06 81.47 312.74 58.01 312.74 58.01 306.06"/></g></mask><mask id="mask-4" x="100.88" y="305.73" width="21.33" height="5.66" maskUnits="userSpaceOnUse"><g id="mask-11"><polygon id="path-10" class="cls-1" points="100.88 305.74 122.21 305.74 122.21 311.4 100.88 311.4 100.88 305.74"/></g></mask><linearGradient id="linear-gradient-3" x1="161.51" y1="1245.31" x2="181.12" y2="1245.25" xlink:href="#linear-gradient"/><linearGradient id="linear-gradient-4" x1="162.43" y1="1177.98" x2="182.13" y2="1177.75" gradientTransform="matrix(10.29, 0, 0, -8.08, -1551.17, 9669.69)" xlink:href="#linear-gradient"/></defs><title>back_rs</title><path id="Path-18" class="cls-2" d="M1437,569.43c-1.2,5.87-2.56,11.69-4,17.5-.36,1.52-.73,3-1.12,4.54h0c-1.05,4.28-2.16,8.56-3.27,12.84-1.51,5.77-3.08,11.55-4.76,17.28l-2.5,8.61c-.17.52-.32,1-.49,1.56-.73,2.34-1.41,4.67-2.21,7,.46-2.26,1-4.53,1.47-6.72.15-.66.28-1.33.43-2l2.05-8.73c1.38-5.82,2.88-11.6,4.39-17.37s3-11.17,4.59-16.7h0l.17-.57C1433.48,580.9,1435.17,575.13,1437,569.43Z"/><path id="Path-21" class="cls-2" d="M1418.69,439.86a49.3,49.3,0,0,1,9.76,5,73.12,73.12,0,0,1,8.74,6.64,79.75,79.75,0,0,1,7.66,7.83c1.21,1.38,2.3,2.86,3.37,4.29s2.08,3,3.06,4.53c-2.49-2.67-4.88-5.39-7.43-7.93s-5.17-5-7.84-7.46-5.51-4.64-8.41-6.83c-1.42-1.1-2.9-2.13-4.42-3.14S1420.26,440.78,1418.69,439.86Z"/><path id="Shape" class="cls-1" d="M1455.83,514l-.23-1.51-.93-6.12-1.43-9.5-.2-1.26-1.24-8.23h0l-1.51-10.09-.71-4.69-.32-2.08-.83-5.47-.21-1.49h0l-5.38-35.64-.38-2.52a30.1,30.1,0,0,0-1-4.49,31.74,31.74,0,0,0-15.28-18.73l-27.05-14.61,8.69,30.47-25-3.37h-.18a1.08,1.08,0,0,0-1.11.57,1.06,1.06,0,0,0,.17,1.23l.62.67,7.09,7.59-2.4,1.94-.82.68c-1.16,1-2.61,2.13-4.26,3.51l-.8.68-.84.7-1.37,1.14-1.79,1.51c-1.69,1.41-3.47,2.94-5.32,4.55-6.28,5.43-13.34,11.77-19.5,17.75l-2.82,2.78c-1.85,1.89-3.6,3.73-5.18,5.5L1343,466.9a59.9,59.9,0,0,0-3.93,5.05c-.36.5-.68,1-1,1.46h0c-.22.89-.42,1.76-.62,2.62-.1.4-.19.81-.27,1.21-.32,1.44-.62,2.86-.89,4.24a8,8,0,0,1-.24,1.28c-.17.85-.32,1.68-.45,2.48l-.25,1.51c-.29,1.68-.54,3.36-.76,5-.15,1.18-.28,2.3-.4,3.37-.3,2.69-.49,5-.62,7.23a10.52,10.52,0,0,1-.09,1.68c-.12,2.7-.12,4.79-.1,6.15v1h0v.49a.38.38,0,0,1,0,.15v.22l-16.59-1c-.14.64-.25,1.26-.35,1.89a180.36,180.36,0,0,0-3.22,34c0,3.67.13,7.32.34,11l1.1,17.32,20.65-1.06,47.22-2.4h0l42.87-2.19a22.12,22.12,0,0,0,4.85-.79,22.69,22.69,0,0,0,11.21-7.21l.11-.12a22.64,22.64,0,0,0,3.21-5.2l7.55-17a45.55,45.55,0,0,0,3.46-25.34Zm-57.9-15.48L1416,486.32a3.06,3.06,0,0,1,3.87,4.72l-6.73,6.73v.1l5.25-1.4a24.66,24.66,0,0,1,10.08-.5h.56l.5.12h.19l.22.08h0a2,2,0,0,1,.43.29h0a1.27,1.27,0,0,1,.34.27l.15.13a2.86,2.86,0,0,1,.57.76,2.22,2.22,0,0,1,.2.41,1,1,0,0,1,.09.22l.12.41v.16a5.61,5.61,0,0,1,0,.58,3.09,3.09,0,0,1-.11.8,3.47,3.47,0,0,1-.13.46,1.39,1.39,0,0,1-.12.28l-.1.21h0a1.67,1.67,0,0,1-.18.28,3.47,3.47,0,0,1-.29.38,3.66,3.66,0,0,1-2.34,1.21l-5.14.76,7.26.8a3.38,3.38,0,0,1,3,3.74,3.49,3.49,0,0,1-2.48,3,21.05,21.05,0,0,1-5.75.79h-1.68l-1.68-.13a9.27,9.27,0,0,0-3.51.35l-6.42,1.89h-2.45l-9,.42-8.22.38-2.17.1-1.13-.08.9-1.82Z"/><path id="Path-41" class="cls-3" d="M1338,35s-6-13.15-55.65,10.22S1123,115.33,1136.16,131.43s54.09,7.32,90.63,0S1365.87,87.59,1338,35Z"/><path id="Path-42" class="cls-4" d="M1119.84,136.61s-6.72-8-24,0-14.67,25.4,0,27.37S1131.87,147.27,1119.84,136.61Z"/><path id="Path" class="cls-5" d="M1216.15,594.19s68.57,13.9,72.34,26l-.45-14.78Z"/><path id="Path-2" data-name="Path" class="cls-6" d="M1278.18,537c8.79,1.45,13.65,24.74,1.2,26.44-7.55,1-12.42-1.71-18.43-6.88-5.17-4.47-18.59-6.94-26.27-7.51C1234.71,549,1263,534.51,1278.18,537Z"/><path id="Path-3" data-name="Path" class="cls-5" d="M1274,497.78c.49,2,4.11,39.22,4.11,39.22a26.73,26.73,0,0,0-8.28,0S1276.53,533.51,1274,497.78Z"/><path id="Path-4" data-name="Path" class="cls-7" d="M1235.74,497.58a2.41,2.41,0,1,1-2.41-2.42,2.43,2.43,0,0,1,1.71.71,2.38,2.38,0,0,1,.7,1.71Z"/><path id="Path-5" data-name="Path" class="cls-7" d="M1266,528.58a2.41,2.41,0,1,1-2.41-2.42A2.41,2.41,0,0,1,1266,528.58Z"/><path id="Path-6" data-name="Path" class="cls-7" d="M1233.46,497.58a1.86,1.86,0,0,1-1.84,1.85h-1.44a1.84,1.84,0,0,1-1.31-.53,1.82,1.82,0,0,1-.55-1.3v0h0a1.84,1.84,0,0,1,1.86-1.86h1.42A1.86,1.86,0,0,1,1233.46,497.58Z"/><path id="Path-7" data-name="Path" class="cls-7" d="M1268.2,528.58a1.85,1.85,0,0,1-1.84,1.85h-1.44a1.88,1.88,0,0,1-1.31-.53,1.82,1.82,0,0,1-.55-1.3v0h0a1.89,1.89,0,0,1,.54-1.32,1.85,1.85,0,0,1,1.32-.54h1.42a1.86,1.86,0,0,1,1.86,1.86Z"/><path id="Path-8-2" data-name="Path" class="cls-8" d="M1236.32,528.58c-19-44.26,14.31-65.19,14.31-65.19s35.6,21.57,12.94,65.19"/><rect id="Rectangle-11" class="cls-9" x="1349.42" y="274.81" width="3.84" height="202.42"/><path id="Path-46" class="cls-10" d="M1310.62,513.45a74.68,74.68,0,0,0-7.41,26.48h-.12l-18.26-4L1277,526.3l2.12-6.64a31.13,31.13,0,0,0,1.43-7.59h0A193.58,193.58,0,0,1,1310.62,513.45Z"/><path id="Path-47" class="cls-10" d="M1431.05,504.76a3.35,3.35,0,0,1,3,3.73,3.45,3.45,0,0,1-2.47,3,21.44,21.44,0,0,1-5.75.79h-1.68l-1.68-.13a9.47,9.47,0,0,0-3.51.35l-6.42,1.89h0l-11.46.54,1.44-2.12a15.31,15.31,0,0,1,8.58-6.17l7.93-2.24a12.43,12.43,0,0,1,4.74-.37Z"/><path id="Path-48" class="cls-10" d="M1429.12,495.94a3.68,3.68,0,0,1-.17,7.27l-5.14.75a12.43,12.43,0,0,0-4.74.38l-7.93,2.24a15.31,15.31,0,0,0-8.58,6.17l-1.45,2.12-8.21.37,8.68-12.34a8.45,8.45,0,0,1,4.71-3.36l6.94-1.85,5.25-1.39a24.49,24.49,0,0,1,10.08-.51Z"/><path id="Path-49" class="cls-10" d="M1420.24,487a3,3,0,0,1-.32,4l-6.72,6.73v.1l-6.94,1.85a8.41,8.41,0,0,0-4.71,3.36l-8.69,12.34-2.17.1-1.13-.08,8.4-16.81,18.11-12.19A3.06,3.06,0,0,1,1420.24,487Z"/><path id="Path-50" class="cls-11" d="M1352.8,433h0l-1.68,3.94a186.69,186.69,0,0,0-9.25,23.19l-12.32-30.49c1.29-7.36,7.43-16.81,7.43-16.81h8.4A46.37,46.37,0,0,1,1352.8,433Z"/><path id="Shape-2" class="cls-1" d="M1431.92,591.49h0l-.3-4.25h0l-1.24-17.7v-.65a22.32,22.32,0,0,1-4.86.8l-42.87,2.18h0l-47.27,2.3v74.91a696.8,696.8,0,0,0,84.76-17.16c-.5,2.27-1,4.53-1.46,6.72.79-2.32,1.48-4.65,2.2-7q6.91-1.89,13.6-3.85Zm-33,37.67-15,1.14A13.92,13.92,0,0,1,1369,617.45l-1.68-22.14c27.2,3.25,42.43-2.76,42.43-2.76l2,21.46a14,14,0,0,1-12.76,15.16Z"/><path id="Path-51" class="cls-12" d="M1411.74,614a14,14,0,0,1-12.8,15.13l-15,1.13a13.92,13.92,0,0,1-15-12.86l-1.68-22.14c27.23,3.24,42.44-2.75,42.44-2.75Z"/><path id="Path-52" class="cls-12" d="M1341.87,460.06a185.46,185.46,0,0,1,9.25-23.19l1.68-3.94h0l6.12-14.91,7.85-16.29a43.76,43.76,0,0,0,4.25-24.09,24.38,24.38,0,0,0-1.38-6.08l29.44,16,8.69,30.47-25.22-3.36a1.08,1.08,0,0,0-1.11.56,1.06,1.06,0,0,0,.17,1.23l7.71,8.26s-41.92,33.61-51.28,48.75c.2-.86.4-1.68.63-2.57C1339.6,467.39,1340.64,463.78,1341.87,460.06Z"/><path id="Path-53" class="cls-12" d="M1329.55,429.6l12.32,30.48c-1.23,3.71-2.27,7.33-3.16,10.76l-.66-.17c-10.64-18-44-44.52-44-44.52l9.26-9.56a1.09,1.09,0,0,0,.14-1.32,1.1,1.1,0,0,0-1.25-.45,99.11,99.11,0,0,1-16.1,3.21c-2.52-5.95-1.87-20.86-1.87-20.86,14.48-7.58,27-14.86,28.26-15.58a44.3,44.3,0,0,0,4.53,20.17l7.86,16.29Z"/><path id="Path-54" class="cls-1" d="M1280.51,512.06a31,31,0,0,1-1.43,7.58l-2.12,6.64,7.82,9.65,18.25,4h.14c-.08,1.13-.12,2.26-.12,3.36l10.2,3.63c0,3.66.12,7.31.35,11l1.08,17.32,20.66-1.06v.2a15.3,15.3,0,0,1-15,8.41l-67.9-5.62a18.26,18.26,0,0,1-16.3-14.17L1229,531a53.4,53.4,0,0,1-.2-22.41L1245,430.09a31.9,31.9,0,0,1,18.1-22.34c6.82-3.11,14.22-6.84,21.2-10.53,0,0-.66,14.92,1.87,20.87a101.51,101.51,0,0,0,16.1-3.21,1.07,1.07,0,0,1,1.11,1.76l-9.26,9.57s33.35,26.49,44,44.53l.66.17c-.24.87-.44,1.68-.64,2.57h0c-5.67,23.16-4.61,38.66-4.61,38.66l-16.59-.95c-.13.63-.24,1.25-.35,1.89h0l-5.38-.5-.49.95a190.9,190.9,0,0,0-30-1.4Z"/><path id="Shape-3" class="cls-1" d="M1320.4,582.85l-67.91-5.61-4.91,71.45-2.27,7.31h3.78q9.93-.15,19.87-.62l21-1.28c15.31-1.16,30.51-2.83,45.39-4.91V574.43a15.31,15.31,0,0,1-14.93,8.42ZM1314.74,621a13.94,13.94,0,0,1-15,12.87l-15-1.13A13.94,13.94,0,0,1,1272,617.61l2-21.45s15.13,6,42.43,2.76Z"/><path id="Path-55" class="cls-13" d="M1310.62,513.45l.49-.94,5.38.49h0a179.52,179.52,0,0,0-3.21,34l-10.2-3.63c0-1.12,0-2.24.11-3.36a75.28,75.28,0,0,1,7.43-26.55Z"/><path id="Path-56" class="cls-12" d="M1316.35,598.87,1314.67,621a13.94,13.94,0,0,1-15,12.86l-15-1.13a14,14,0,0,1-12.8-15.13l1.95-21.45S1289.14,602.11,1316.35,598.87Z"/><path id="Path-57" class="cls-12" d="M1252.49,577.24c7.21.25,14.39.67,21.58,1.14s14.36,1,21.53,1.57,14.36,1.27,21.53,2a52.51,52.51,0,0,0,5.31.42,15.1,15.1,0,0,0,5-1.06,15.42,15.42,0,0,0,7.86-6.88,15.17,15.17,0,0,1-7.55,7.63,15.37,15.37,0,0,1-5.36,1.37,47.54,47.54,0,0,1-5.47-.19c-7.17-.47-14.35-1.07-21.55-1.6s-14.35-1.24-21.5-2S1259.63,578.17,1252.49,577.24Z"/><path id="Path-58" class="cls-12" d="M1303.07,539.92a98.94,98.94,0,0,1-25.31-5.54,87,87,0,0,1,12.85,2,88.63,88.63,0,0,1,12.46,3.59Z"/><path id="Path-59" class="cls-12" d="M1284.85,535.93c-2.76-3.11-5.43-6.27-8.12-9.41l-.13-.16v-.2l1.68-5.73a36.57,36.57,0,0,0,1.32-5.75,33.67,33.67,0,0,0-.48-11.63c-1.69-7.77-3.94-15.43-6-23.13s-4.37-15.33-6.53-23l-6.57-23c2.74,7.49,5.29,15.13,7.72,22.66s4.7,15.24,6.93,22.91,4.15,15.43,5.86,23.25a32,32,0,0,1,.22,12.14,35.29,35.29,0,0,1-1.56,5.87l-1.92,5.66v-.35C1279.82,529.34,1282.36,532.6,1284.85,535.93Z"/><path id="Path-60" class="cls-12" d="M1245.06,519.61a50.21,50.21,0,0,1,8.31-.71,45.54,45.54,0,0,1,8.4.81,41.7,41.7,0,0,1,8,2.45,35.66,35.66,0,0,1,7.26,4.12c-2.57-1-5-2.07-7.72-2.89a73.12,73.12,0,0,0-16-3.18C1250.59,519.94,1247.83,519.83,1245.06,519.61Z"/><path id="Path-61" class="cls-12" d="M1382.59,571.82c2.55-.32,5-.52,7.66-.79l7.67-.64c5-.4,10.24-.69,15.36-1l7.68-.34c2.59-.1,5.13-.13,7.64-.45a23.8,23.8,0,0,0,13-7.11,18.61,18.61,0,0,1-5.6,5.33,24.49,24.49,0,0,1-3.51,1.76l-1.78.69h-.14l-.32.15-.52.15-1,.22a57,57,0,0,1-7.72.77l-7.7.44c-5.12.24-10.25.49-15.38.59l-7.71.15C1387.71,571.84,1385.16,571.89,1382.59,571.82Z"/><path id="Path-62" class="cls-12" d="M1272.49,439.86a82.27,82.27,0,0,1,2.86,11.24,105.78,105.78,0,0,1,1.51,11.5,92.14,92.14,0,0,1,.19,11.63,71.9,71.9,0,0,1-1.38,11.52c0-1.95.16-3.85.1-5.78v-5.75c-.1-3.83-.24-7.67-.58-11.48s-.67-7.64-1.11-11.45q-.32-2.84-.75-5.72C1273,443.66,1272.78,441.77,1272.49,439.86Z"/><path id="Path-63" class="cls-14" d="M1367.72,454.6a1.82,1.82,0,0,1-.72-.15,1.68,1.68,0,0,1-.86-.95,1.65,1.65,0,0,1,0-1.29c31.94-67.83,2.48-84.37,2.17-84.52a1.66,1.66,0,0,1-.93-1.44,1.68,1.68,0,0,1,.8-1.51,1.71,1.71,0,0,1,1.72,0c1.34.71,32.54,18.23-.71,88.93a1.69,1.69,0,0,1-1.51,1Z"/><path id="Path-64" class="cls-14" d="M1295.64,434.65a1.69,1.69,0,0,1-1.68-1.57c-3.63-53.26,19-58.25,19.92-58.43a1.67,1.67,0,0,1,2,2.19,1.64,1.64,0,0,1-1.32,1.1c-.27,0-20.61,5-17.23,54.91a1.68,1.68,0,0,1-.45,1.26,1.7,1.7,0,0,1-1.22.54Z"/><path id="Path-65" class="cls-15" d="M1308.8,511.17a11.05,11.05,0,0,1-5.39-1.43c-15.69-8.62-20.83-53.79-21-55.8l1.68-.18c0,.47,5.24,46.31,20.17,54.52a9.82,9.82,0,0,0,9.57,0l.75,1.51A13,13,0,0,1,1308.8,511.17Z"/><path id="Path-66" class="cls-15" d="M1300.06,511.54a11.9,11.9,0,0,1-7.29-3.26l1.07-1.3c3.28,2.71,6.11,3.52,8.41,2.36,4.91-2.46,8.08-13.45,9.23-31.86.87-14.07.18-27.55.18-27.69l1.68-.1c.12,2.24,2.69,54.6-10.32,61.14a6.46,6.46,0,0,1-3,.71Z"/><path id="Path-67" class="cls-16" d="M1374.94,466.15c-3.78,4.74-10.09,6-14.09,2.82s-4.2-9.61-.44-14.35,10.09-6,14.07-2.82S1378.72,461.41,1374.94,466.15Z"/><path id="Path-68" class="cls-15" d="M1369.27,460.18a4.45,4.45,0,1,1-.22-6.8,4.83,4.83,0,0,1,.22,6.8Z"/><path id="Path-69" class="cls-14" d="M1281.62,454.38c-.13-.42-3.23-10.2,1.21-18.05a17.77,17.77,0,0,1,12.17-8.41h.24a17.77,17.77,0,0,1,12.69,4.42c4.16,3.8,6.26,9.65,6.26,17.4h-3.37c0-6.72-1.68-11.77-5.12-14.89a12.49,12.49,0,0,0-19.94,3.16c-3.71,6.54-1,15.28-.94,15.36Z"/><path id="Path-70" class="cls-16" d="M1319.18,508c.21,1.1-.93,2.26-2.56,2.56s-3.11-.35-3.36-1.46.92-2.26,2.54-2.58S1319,506.93,1319.18,508Z"/><path id="Path-71" class="cls-16" d="M1293.64,508.21c-.57,1-2.18,1.13-3.61.3s-2.12-2.3-1.57-3.36,2.21-1.11,3.63-.29S1294.21,507.22,1293.64,508.21Z"/><path id="Path-72" class="cls-10" d="M1369.93,351.1V367a27.89,27.89,0,1,1-55.76,0V351.1Z"/><path id="Path-73" class="cls-17" d="M1369.93,351.1V367a27.86,27.86,0,0,1-8.29,19.84c-28.33-5.36-38.83-35.71-38.83-35.71Z"/><circle id="Oval-2" class="cls-17" cx="1306.97" cy="321.68" r="9.4"/><circle id="Oval-3" class="cls-17" cx="1377.12" cy="321.68" r="9.4"/><path id="Path-74" class="cls-10" d="M1342,368.36h0A35.07,35.07,0,0,1,1307,333.3V274.94h70.15v58.35A35,35,0,0,1,1342,368.36Z"/><g id="Group-21"><path id="Fill-1" class="cls-18" d="M1333.27,328.85a16.4,16.4,0,0,0,3.34,1.26,11.06,11.06,0,0,0,3.29.38,14.43,14.43,0,0,0,3.32-.51c.56-.13,1.09-.36,1.67-.52s1.12-.43,1.8-.61a9.51,9.51,0,0,1-1.31,1.38,10.5,10.5,0,0,1-1.6,1,8.81,8.81,0,0,1-3.79,1,7.58,7.58,0,0,1-6.72-3.44"/><path id="Fill-3" class="cls-18" d="M1325.87,315.89a3.65,3.65,0,1,0-3.6,3.07,3.36,3.36,0,0,0,3.6-3.07"/><g id="Group-7"><g class="cls-19"><path id="Fill-5" class="cls-20" d="M1310.34,310a9,9,0,0,1,4.2-5.19,15.29,15.29,0,0,1,6.43-2.09,20.27,20.27,0,0,1,6.59.36q1.59.41,3.12,1a21.62,21.62,0,0,1,2.92,1.48,26.73,26.73,0,0,1-3.21.27c-1,0-2.09.12-3.1.1-2,.13-4,.17-5.93.4a30.09,30.09,0,0,0-5.63,1.08,16.89,16.89,0,0,0-5.39,2.63"/></g></g><path id="Fill-10" class="cls-18" d="M1353.31,315.89a3.12,3.12,0,0,1,2.22-2.83,4.09,4.09,0,0,1,3.93.67,2.72,2.72,0,0,1,.78,3.33,3.66,3.66,0,0,1-3.33,1.9,3.36,3.36,0,0,1-3.6-3.07"/><g id="Group-14"><g class="cls-21"><path id="Fill-12" class="cls-20" d="M1368.84,310a17.09,17.09,0,0,0-5.41-2.63,30,30,0,0,0-5.64-1.08c-1.93-.23-3.91-.27-5.93-.4-1,0-2,0-3.09-.1a29.1,29.1,0,0,1-3.23-.27,21.86,21.86,0,0,1,2.94-1.48,31,31,0,0,1,3.11-1,20.33,20.33,0,0,1,6.6-.36,15.29,15.29,0,0,1,6.43,2.09,9.06,9.06,0,0,1,4.22,5.19"/></g></g><path id="Fill-17" class="cls-1" d="M1327.29,339.1s9.5,3.44,27.46,0c0,0-2.72,11.22-14.42,11.22s-13-11.22-13-11.22"/><path id="Fill-19" class="cls-18" d="M1334.05,356.19c1.15.15,2.23.27,3.3.35a30.33,30.33,0,0,0,3.16.1,26.05,26.05,0,0,0,3.18-.16c1.06-.16,2.14-.23,3.33-.29a10.34,10.34,0,0,1-6.49,2.25,11,11,0,0,1-3.46-.54,7.22,7.22,0,0,1-3-1.71"/></g><path id="Path-76" class="cls-11" d="M1351.12,400l-5.7,12.81H1337L1332.63,400a58.71,58.71,0,0,1,7.47-8.81h3.55a57.65,57.65,0,0,1,7.47,8.81Z"/><path id="Path-77" class="cls-13" d="M1371,377.63a43.63,43.63,0,0,1-4.25,24.08L1358.85,418a43.76,43.76,0,0,0-7.73-18,58.29,58.29,0,0,0-7.48-8.81c14.35-5,25.93-19.64,25.93-19.64a24.09,24.09,0,0,1,1.38,6.1Z"/><path id="Path-78" class="cls-22" d="M1358.85,418l-6,15a46.4,46.4,0,0,0-7.38-20.17l5.7-12.84a43.71,43.71,0,0,1,7.74,18.05Z"/><path id="Path-79" class="cls-22" d="M1332.63,400l4.36,12.84s-6.14,9.4-7.43,16.82l-4.67-11.59a43.61,43.61,0,0,1,7.74-18.07Z"/><path id="Path-80" class="cls-13" d="M1312.45,381.56a36.7,36.7,0,0,1,.27-3.93,24.91,24.91,0,0,1,1.38-6.09s11.55,14.66,25.94,19.64a57.65,57.65,0,0,0-7.47,8.81,43.55,43.55,0,0,0-7.75,18L1317,401.72a44.26,44.26,0,0,1-4.53-20.16Z"/><path id="Path-81" class="cls-20" d="M1383.19,276.42a9.92,9.92,0,0,0-5-3.19.73.73,0,0,0,.18-.17c-.3-6.72-.75-10.95-4.64-12.59-5-2.17-9.7,2-14.17-1-6.72-4.5-12.37-3.92-20-2.54-4.81.88-7.38-2.11-11.55-4.8-9.6-6.22-25.72-14.78-33.38-.32-5.33,10.08-4.16,25.34,3.71,32.57a9.91,9.91,0,0,0,3.36,2,16.38,16.38,0,0,0,.32,8.31c.66,3.2.64,6.36,1.43,9.53a71.68,71.68,0,0,0,3.58,10.81c1.68-2.44,1.38-5.41,1.43-8.27,0-2.57,1-3.9,1.68-6.14a19.66,19.66,0,0,0,.31-3.15,7.47,7.47,0,0,1,.92-2.46c.67-1.68,1.68-5.33.82-7.55h3.7c10.62.42,20.32.67,30.83-1.48a87.28,87.28,0,0,0,16.36-5.45c2-.85,4.4-1.68,6.72-2.52a16.29,16.29,0,0,0-.45,6c.38,2.16.55,5.55,2,7.24.76.91,1.92,1.3,2.49,2.37,1.25,2.34-.34,5.87.44,8.41.67,2.32,2.08,3.36,2.07,5.95s-.58,6.22,1.13,8.07c2.27-3.21,4.83-5.75,6.22-9.55a45.77,45.77,0,0,0,2.44-15.35C1386.2,286.27,1386.65,280.48,1383.19,276.42Z"/><path id="Path-82" class="cls-12" d="M1426.77,423.51a38.17,38.17,0,0,0-18.14,32.63c-.16,22.95-.92,32.18-.92,32.18Z"/><polygon id="Path-83" class="cls-12" points="1429.2 518.23 1412.56 514.31 1316.64 510.54 1429.2 518.23"/><path id="Path-8-3" data-name="Path-8" class="cls-23" d="M20.9,513.34l.76,5.48L29,525.55l2.54-1.46,8.92,9a12,12,0,0,0,3.84,2.57l12.54,5.23a11.72,11.72,0,0,0,6.62.75,12.55,12.55,0,0,1,2-.18h8.41A48.7,48.7,0,0,0,85.47,540l9.82-2.47a47.73,47.73,0,0,0,10.78-4.13c1.13-.6,2.26-1.27,3.36-2l.08.13L150.16,498c5,1.68,7.8,48.75,13.1,49.3l6.82.66c2.41.23,4.79.35,7.18.35h1.31Q77,594.24,10.67,597q-20,.86-4.8-41.47l2.24-13.8L-12,482.57l-7.15-9.13,6.26-43.3L2,407.16,31,390.8,41,392.63l3.63.66,38.27,14.3,6-1.86,8,2.8,2.17,4.66s7.43,52.47,14.41,71.77l.35,2.34a60.3,60.3,0,0,1-20.75-.54,66.72,66.72,0,0,0-18.39-1L72,486,61.69,474.71,60.14,473l-17.67,4-22.81,27.4Z"/><circle id="Oval" class="cls-24" cx="54.19" cy="320.27" r="9.4"/><path id="Path-12" class="cls-24" d="M115.48,320.27a9.4,9.4,0,1,1,9.4,9.39A9.4,9.4,0,0,1,115.48,320.27Z"/><path id="Path-13" class="cls-2" d="M61.65,474.67,72,485.92l-3.23.28h-.34A4.24,4.24,0,0,1,65,484.39a17.2,17.2,0,0,1-2.7-6.24l-.76-3.36Z"/><path id="Path-14" class="cls-1" d="M170.33,495.38l2,2.61.17.67-1.25.32c-2.5.64-5,1.36-7.43,2.22l-9.17,3.19-13,2.76,7.51-4.88a29,29,0,0,0,7.84-7.49,5.59,5.59,0,0,0-.51-7.08l-4.66-4.91a34.77,34.77,0,0,1,12,6l.32.24A35.72,35.72,0,0,1,170.33,495.38Z"/><path id="Path-15" class="cls-23" d="M221,506.8l-5.91,8.72h0c-.15-.59-.3-1.18-.49-1.76L209,495.87l-13.2-3.9-11.09,4.27a84.55,84.55,0,0,0-10,1.89l-2.12.5-.17-.67-2-2.61a36.24,36.24,0,0,0-6.19-6.37l-.32-.23a34.82,34.82,0,0,0-12-6c-.94-.25-1.9-.47-2.87-.65l-.53-.11a34.81,34.81,0,0,0-15.13.54l-12.62,3.37a59,59,0,0,1-6.83,1.37l-.35-2.33c-7-19.27-14.41-71.77-14.41-71.77l6.54-2.17,4.37-20.17,3.36,4.05,41.38,15.55h8.72l9.95,10.25,17.1,28.06.94,6.89,7.31,4.22L211.1,491.3Z"/><path id="Path-16" class="cls-24" d="M112.61,529.26l24.75-18.87h0l17.23-6,9.18-3.19c2.45-.86,4.91-1.58,7.43-2.22l1.24-.32,2.12-.5a80.67,80.67,0,0,1,10-1.89L195.64,492l13.2,3.9,5.66,17.89c.18.58.34,1.17.49,1.76s.23,1.17.34,1.78L217.59,533a9.09,9.09,0,0,1,.11,1.47,10.25,10.25,0,0,1-1.08,4.58,10,10,0,0,1-3.65,4,10.17,10.17,0,0,1-5.19,1.56,37.18,37.18,0,0,0-5.05.47l-13.6,2.22a72.4,72.4,0,0,1-10.61,1h-1.31a71.41,71.41,0,0,1-7.17-.35l-6.83-.65a74.28,74.28,0,0,1-15.6-3.27l-38-12.39-.08-.13C110.54,530.79,111.6,530,112.61,529.26Z"/><path id="Path-17" class="cls-25" d="M72,485.92l2.69-.22a66.72,66.72,0,0,1,18.39,1A60.59,60.59,0,0,0,105,487.92a63,63,0,0,0,15.63-2l12.63-3.36a34.56,34.56,0,0,1,15.11-.53l.54.09c1,.2,1.93.42,2.87.66l4.66,4.91a5.6,5.6,0,0,1,.5,7.08,28.92,28.92,0,0,1-7.83,7.49l-7.52,4.88-4.25,3.24h0l-24.74,18.87c-1,.75-2.08,1.51-3.18,2.2s-2.21,1.36-3.36,2a47.26,47.26,0,0,1-10.78,4.13L85.47,540a48.12,48.12,0,0,1-11.53,1.39H65.53a12.55,12.55,0,0,0-2,.18,11.73,11.73,0,0,1-6.62-.75l-12.54-5.23A12.16,12.16,0,0,1,40.5,533l-8.9-9L20.9,513.28l-1.24-9L42.47,477l17.64-4,1.54,1.68-.13.12.75,3.36A17.22,17.22,0,0,0,65,484.34a4.25,4.25,0,0,0,3.46,1.81h.34Z"/><path id="Path-18-2" data-name="Path-18" class="cls-2" d="M42.46,536.13c-1.2,5.87-2.56,11.68-4,17.5q-.53,2.26-1.11,4.53h0c-1,4.29-2.16,8.56-3.27,12.85-1.52,5.76-3.08,11.55-4.76,17.28l-2.5,8.61c-.17.52-.33,1-.49,1.56-.73,2.33-1.41,4.67-2.21,7,.46-2.27,1-4.53,1.47-6.72.15-.66.28-1.33.43-2L28.11,588c1.38-5.82,2.88-11.6,4.39-17.38s3-11.16,4.59-16.69h0l.17-.57C39,547.6,40.64,541.83,42.46,536.13Z"/><path id="Path-19" class="cls-2" d="M99,413.11l1.77,9,1.68,9,3.36,18c1.07,6,2.26,12,3.44,17.95.59,3,1.25,6,1.92,8.95l1.06,4.46,1.21,4.4A120.45,120.45,0,0,1,108,467.34c-1.48-5.93-2.72-11.92-3.83-17.94s-2.13-12-3-18.09S99.58,419.29,99,413.11Z"/><path id="Path-20-2" data-name="Path-20" class="cls-2" d="M2.22,411.89a44.54,44.54,0,0,1,17.09,3.77,105.53,105.53,0,0,1,15.75,7.84c2.54,1.44,5,3.11,7.44,4.65s4.81,3.37,7.18,5.13,4.66,3.53,6.94,5.36l6.73,5.67h0a.55.55,0,0,1,.18.4c-.1,5.46-.28,11-.53,16.41-.26-5.46-.44-11-.54-16.41l.18.4-6.89-5.36c-2.29-1.78-4.66-3.49-7-5.24s-4.77-3.37-7.17-5.05-4.83-3.24-7.33-4.7l-3.72-2.17-3.82-2.09c-1.27-.7-2.57-1.33-3.86-2s-2.61-1.28-3.95-1.85a51.22,51.22,0,0,0-16.7-4.78Z"/><path id="Path-21-2" data-name="Path-21" class="cls-2" d="M24.16,406.56a49.3,49.3,0,0,1,9.76,5,73.93,73.93,0,0,1,8.74,6.64,79.75,79.75,0,0,1,7.66,7.83c1.21,1.38,2.3,2.86,3.37,4.29s2.08,3,3.05,4.53c-2.48-2.67-4.87-5.39-7.43-7.93s-5.16-5-7.83-7.46-5.51-4.64-8.41-6.83c-1.42-1.11-2.91-2.13-4.42-3.14S25.73,407.48,24.16,406.56Z"/><path id="Path-22-2" data-name="Path-22" class="cls-2" d="M60.11,417c2.82,5,5.36,10.42,7.8,15.73S72.6,443.5,74.75,449s4.07,11,5.76,16.62a151.4,151.4,0,0,1,4.23,17.07c-.91-2.8-1.69-5.62-2.65-8.41s-1.84-5.53-2.78-8.29c-2-5.5-4-10.95-6.13-16.41s-4.28-10.86-6.42-16.28Z"/><path id="Path-23" class="cls-2" d="M184.12,459.12c-1.48,1.89-3.05,3.72-4.59,5.57s-3.13,3.65-4.71,5.44h0c-1.07,1.45-2.07,2.95-3,4.46s-1.82,3.09-2.62,4.69a103,103,0,0,1-5.43,9.53,103.8,103.8,0,0,1,4-10.2,36.88,36.88,0,0,1,6-9.33h0l5-5C180.47,462.55,182.34,460.74,184.12,459.12Z"/><path id="Path-24" class="cls-2" d="M72.39,479.6,71,467.83l.2.25c-5.82-2.07-11.6-4.27-17.4-6.42h.42c-5.33,1.78-10.68,3.45-16,5.15l-16,5.12.48-.4-7,12.61L8.7,496.75l.08-.43c1,6.73,2.11,13.45,3.08,20.28l-.1-.19,14.57,13.17-15-12.66a.35.35,0,0,1-.12-.19h0C9.89,510,8.71,503.29,7.46,496.56a.61.61,0,0,1,0-.42h0l6.84-12.69,6.89-12.68a.81.81,0,0,1,.47-.38l16.07-5c5.34-1.68,10.69-3.36,16.07-4.87h0a.62.62,0,0,1,.38,0c5.71,2.32,11.48,4.59,17.18,7h0a.36.36,0,0,1,.19.26Z"/><path id="Path-25" class="cls-26" d="M214,497.4a160,160,0,0,1-18.51-4.62H196c-1.94.75-3.89,1.39-5.87,2s-4,1.18-6,1.68c1.83-1,3.7-1.93,5.58-2.79s3.8-1.68,5.72-2.42a.92.92,0,0,1,.52,0h0a154.86,154.86,0,0,1,18,6.12Z"/><path id="Path-26" class="cls-24" d="M110,390.79l-1,4.55a25,25,0,0,1-4-1.17c-11.64-4.58-18.28-15.49-19.94-27.32.92,0,1.82.12,2.73.12h4a33.08,33.08,0,0,0,24.93-11.3C116.29,356.64,107.29,374.78,110,390.79Z"/><path id="Path-27" class="cls-25" d="M124.86,304.88v29A32.86,32.86,0,0,1,121.23,349h0a33.22,33.22,0,0,1-4.53,6.73h0A33.08,33.08,0,0,1,91.77,367h-4a33.1,33.1,0,0,1-33.11-33.09V304l7.06-3.58a29.34,29.34,0,0,1,12.49-3.12l32-.73a29.12,29.12,0,0,1,18.5,6.14Z"/><g id="Group-14-2" data-name="Group-14"><path id="Fill-4" class="cls-27" d="M74.65,316.89a2.21,2.21,0,1,0-2.21,2.22,2.21,2.21,0,0,0,2.21-2.22"/><g id="Group-8"><g class="cls-28"><path id="Fill-6" class="cls-27" d="M58,312.74a11.91,11.91,0,0,1,4.69-4.57,15.8,15.8,0,0,1,6.38-2.05,17.86,17.86,0,0,1,6.62.72,19.1,19.1,0,0,1,3,1.22,21.15,21.15,0,0,1,2.74,1.84c-1.11-.11-2.13-.33-3.16-.5a30,30,0,0,0-3-.38,32.74,32.74,0,0,0-5.94,0A26.37,26.37,0,0,0,58,312.74"/></g></g><path id="Fill-9" class="cls-27" d="M104.7,317.21a2.22,2.22,0,1,1,2.51,1.84,2.22,2.22,0,0,1-2.51-1.84"/><g id="Group-13"><g class="cls-29"><path id="Fill-11" class="cls-27" d="M122.21,311.4a24.84,24.84,0,0,0-10.35-2.88,39.8,39.8,0,0,0-5.35.15c-.91,0-1.85.22-2.75.29s-1.84.3-2.88.35a21.47,21.47,0,0,1,2.46-1.64,24.42,24.42,0,0,1,2.75-1.13,17,17,0,0,1,5.93-.79,14.73,14.73,0,0,1,5.85,1.61,10.32,10.32,0,0,1,4.34,4"/></g></g></g><path id="Path-28" class="cls-27" d="M93.29,315.61a56.89,56.89,0,0,1,1.29,13.65,49.41,49.41,0,0,1-1-6.72,50.18,50.18,0,0,1-.24-6.93Z"/><path id="Path-29" class="cls-1" d="M121.23,349h0a33.1,33.1,0,0,1-29.46,18h-4a33,33,0,0,1-26.35-13.06h0s3.37-7.35,0-23.67c0,0,30.84-17.28,59.79-.57C121.23,329.64,117,340.08,121.23,349Z"/><path id="Path-30" class="cls-1" d="M119.33,351.45a.81.81,0,0,1-.57-1.41c5.92-6.46,5.33-20.18,5.33-20.34a.82.82,0,0,1,.21-.61.86.86,0,0,1,.58-.27.81.81,0,0,1,.61.2.74.74,0,0,1,.26.59c0,.59.64,14.61-5.75,21.57A.82.82,0,0,1,119.33,351.45Z"/><path id="Path-31" class="cls-1" d="M64,356.19a.81.81,0,0,1-.42-.12c-5-2.86-9.71-23.85-10.24-26.24a.84.84,0,0,1,1.65-.35c1.38,6.27,5.77,23,9.44,25.21a.85.85,0,0,1-.42,1.57Z"/><path id="Path-32" class="cls-30" d="M73.39,341.48c1.81.19,3.61.38,5.42.44s3.62.17,5.42.15A83.9,83.9,0,0,0,95,341.32,63.57,63.57,0,0,0,105.46,339l2.57-.83,2.49-1c1.68-.57,3.26-1.56,5-2.27a38.85,38.85,0,0,1-9.58,5.35A46.44,46.44,0,0,1,95.21,343a56.3,56.3,0,0,1-11,.37,47.21,47.21,0,0,1-10.81-1.89Z"/><path id="Path-33" class="cls-30" d="M67.69,348.86a50.16,50.16,0,0,0,5.39,2.05,58.32,58.32,0,0,0,16.81,2.94,48.76,48.76,0,0,0,5.67-.2c.94-.1,1.89-.27,2.81-.38a22.19,22.19,0,0,0,2.79-.55c.92-.22,1.86-.38,2.77-.67l2.69-.94c1.85-.54,3.5-1.55,5.31-2.24a34.9,34.9,0,0,1-10.44,5l-1.41.44c-.47.14-1,.2-1.44.3-1,.17-1.92.38-2.9.52a42.74,42.74,0,0,1-17.45-1.54A39.68,39.68,0,0,1,67.69,348.86Z"/><path id="Path-34" class="cls-2" d="M50,299.4a86.74,86.74,0,0,1,9.23-5,49.61,49.61,0,0,1,10.08-3.18,56,56,0,0,1,10.58-.92L90.37,290c3.49,0,7-.2,10.57,0a46,46,0,0,1,10.46,1.95,46.65,46.65,0,0,1,18.2,10.49,54.26,54.26,0,0,0-8.87-5.55,48.08,48.08,0,0,0-9.68-3.7,55.11,55.11,0,0,0-10.2-1.68c-3.36-.2-6.95,0-10.44.1l-10.51.12a65.38,65.38,0,0,0-10.37.67A48.86,48.86,0,0,0,59.44,295C56.24,296.24,53.16,298,50,299.4Z"/><path id="Path-35" class="cls-1" d="M62.71,333.28a.85.85,0,0,1-.81-.61c0-.13-3.89-13.56-8.4-21.38a.84.84,0,0,1,.7-1.35.84.84,0,0,1,.75.51c4.65,8,8.4,21.2,8.6,21.77a.81.81,0,0,1-.07.63.83.83,0,0,1-.5.38.63.63,0,0,1-.27,0Z"/><path id="Path-36" class="cls-27" d="M116.86,297.81c0,2.79,1.19,4.62,2.47,7.07.91,1.69.62,3.52,1.82,5.05a12.43,12.43,0,0,1,2,3.36c.42,1.16.42,2.27,1.51,3,1-1,.93-2.61,1.33-3.89a12.38,12.38,0,0,0,.81-4.93,6.43,6.43,0,0,0-.55-2.15c-.29-.63-.38-1.39-.65-2-.5-1.21-2.35-2.12-3.47-2.94A13.52,13.52,0,0,0,116.86,297.81Z"/><path id="Path-37" class="cls-1" d="M120,331.76h-.3a.84.84,0,0,1-.47-1.09,116.5,116.5,0,0,0,4.86-19.9.88.88,0,0,1,1-.69.85.85,0,0,1,.69,1,113.93,113.93,0,0,1-5,20.18.86.86,0,0,1-.71.53Z"/><path id="Path-38" class="cls-25" d="M110,390.79l-1,4.55L105.61,411l-6.55,2.1-2.17-4.65-8-2.81-6,1.86-38.26-14.3L41,392.55l12-10.17A24.16,24.16,0,0,0,61.47,364V353.89a33,33,0,0,0,23.61,12.94c.92,0,1.82.12,2.73.12h4a33.08,33.08,0,0,0,24.93-11.3C116.29,356.64,107.29,374.78,110,390.79Z"/><path id="Path-39" class="cls-23" d="M135.59,287a5.61,5.61,0,0,0-.31-1.45l-4-11.12a5.72,5.72,0,0,0-1.89-2.58l-4.08-3.34a4.4,4.4,0,0,1-.86-.81l-4.59-5.46a5.64,5.64,0,0,0-3.8-2l-3.36-.36a5.39,5.39,0,0,1-1.68-.42l-6-2.58a3.53,3.53,0,0,0-.56-.14l-11.76-3.56a6,6,0,0,0-2.62-.17l-12.8,2.19a6.72,6.72,0,0,0-1.17.31l-8.51,3.37a6,6,0,0,1-2.92.35,3.48,3.48,0,0,0-.79,0,5.73,5.73,0,0,0-4.41,2.07l-4.05,4.87A5.34,5.34,0,0,1,54,267.49L49.6,270a5.56,5.56,0,0,0-2.22,2.29L41,284.45a6.35,6.35,0,0,0-.54,1.59L37.7,300.4a3.62,3.62,0,0,0,.08,1.27,9,9,0,0,0,10.44,6.73l6.61-1.16V304l7.06-3.57a29.16,29.16,0,0,1,12.37-3.2l32-.72a29.11,29.11,0,0,1,18.5,6.13v2.19l1,.54a5.75,5.75,0,0,0,7.33-1.68l2.2-3a5.73,5.73,0,0,0,1.06-3.86Z"/><path id="Path-41-2" data-name="Path-41" class="cls-31" d="M177.46,89.67s-6-13.16-55.65,10.22S-37.52,170-24.37,186.13s54.09,7.31,90.63,0S205.34,142.29,177.46,89.67Z"/><path id="Path-42-2" data-name="Path-42" class="cls-32" d="M215.31,136.31s-6.72-8-24,0-14.67,25.4,0,27.37S227.34,147,215.31,136.31Z"/><polygon id="Path-43" class="cls-2" points="20.9 513.35 31.6 524.09 29.06 525.56 21.68 518.83 20.9 513.35"/><path id="Path-44" class="cls-27" d="M61.15,300.71A18.93,18.93,0,0,0,59,309.52,11.7,11.7,0,0,1,57.65,314c-.94,2.18.67,8-2,9.07-2-1.68-1.19-5-1.38-7.33-.13-1.77,0-2.14-1.68-2.84-1.13-.47-2.47-.49-3.63-1a3.42,3.42,0,0,1,0-2.32c.36-.82.38-.54,1.16-1,.32-.19.94,0,1.18-.2s.12-1,.35-1.28A4.52,4.52,0,0,1,53,305.8c1.45-1,.92-1.47,1.68-1.82,1.83-.79,2.2-1.68,4.12-2.1C59.47,301.27,59.77,301.29,61.15,300.71Z"/></svg>