<svg id="OBJECTS" xmlns="http://www.w3.org/2000/svg" viewBox="0 0 750 500"><defs><style>.cls-1,.cls-10,.cls-11,.cls-2{fill:#2b74b9;}.cls-1{opacity:0.28;}.cls-2{opacity:0.48;}.cls-3{fill:#191038;opacity:0.25;}.cls-4{fill:#585b66;}.cls-5{fill:#597cd3;}.cls-6{fill:#fcfcfc;}.cls-7{fill:#09257f;}.cls-8{fill:#fff;}.cls-9{fill:#999daa;}.cls-10,.cls-12{opacity:0.32;}.cls-12{fill:#090d16;}.cls-13{fill:#eae6c7;}.cls-14{fill:#ccc392;}.cls-15{fill:#3f1fa3;}</style></defs><path class="cls-1" d="M613.68,115.15s-8.94,76.32,42.69,119.42,39.63-81.44,14.3-68.17S613.68,115.15,613.68,115.15Z"/><path class="cls-2" d="M30.11,472.55H727.57s-122.11-36.29-109.05-73.13S762.13,305.06,662.36,250,635,48.38,527.53,72,448.7,212.75,369.93,199.93,338.08,46.13,237.34,82.11s-94.5,142-45.87,199.25S135.1,472.55,30.11,472.55Z"/><path class="cls-3" d="M567.83,473.13,514.69,163.25H491.07l.93-3.92a6.45,6.45,0,1,0-12.55-3l-1.62,6.88h-46l.93-3.92a6.45,6.45,0,1,0-12.55-3l-1.63,6.88H372.83l.92-3.92a6.45,6.45,0,1,0-12.55-3l-1.62,6.88H314l.93-3.92a6.45,6.45,0,1,0-12.55-3l-1.63,6.88H285.15L193,473.13H471.48v0h96.35v0Z"/><polygon class="cls-3" points="611.82 127.48 543.75 127.48 527.15 241.57 618.61 241.57 629.36 144.54 611.82 127.48"/><polygon class="cls-4" points="281.15 163.25 188.96 473.13 563.83 473.13 510.69 163.25 281.15 163.25"/><polygon class="cls-5" points="510.69 163.25 467.48 473.15 563.83 473.15 510.69 163.25"/><polygon class="cls-5" points="281.15 163.25 262.39 226.31 501.9 226.31 510.69 163.25 281.15 163.25"/><ellipse class="cls-6" cx="292.99" cy="207.87" rx="12.24" ry="10.07"/><ellipse class="cls-6" cx="351.24" cy="207.87" rx="12.24" ry="10.07"/><ellipse class="cls-6" cx="411.35" cy="207.87" rx="12.24" ry="10.07"/><ellipse class="cls-6" cx="470.9" cy="207.87" rx="12.24" ry="10.07"/><path class="cls-7" d="M293.18,213.06a7,7,0,0,1-1.49-.17,6.44,6.44,0,0,1-4.79-7.76l11.51-48.76a6.45,6.45,0,1,1,12.55,3l-11.51,48.76A6.45,6.45,0,0,1,293.18,213.06Z"/><path class="cls-7" d="M352,213.06a7,7,0,0,1-1.49-.17,6.45,6.45,0,0,1-4.79-7.76l11.51-48.76a6.45,6.45,0,1,1,12.55,3l-11.51,48.76A6.45,6.45,0,0,1,352,213.06Z"/><path class="cls-7" d="M411,213.06a6.86,6.86,0,0,1-1.48-.17,6.46,6.46,0,0,1-4.8-7.76l11.52-48.76a6.45,6.45,0,1,1,12.55,3l-11.52,48.76A6.44,6.44,0,0,1,411,213.06Z"/><path class="cls-7" d="M470.22,213.06a7,7,0,0,1-1.49-.17,6.45,6.45,0,0,1-4.79-7.76l11.51-48.76a6.45,6.45,0,1,1,12.55,3l-11.51,48.76A6.45,6.45,0,0,1,470.22,213.06Z"/><polygon class="cls-8" points="392.95 301.57 406.12 231.66 330.68 231.66 314.04 301.57 392.95 301.57"/><polygon class="cls-8" points="482.56 301.57 492.89 231.66 410.8 231.66 397.63 301.57 482.56 301.57"/><polygon class="cls-8" points="312.94 306.18 294.83 382.25 377.75 382.25 392.08 306.18 312.94 306.18"/><polygon class="cls-8" points="293.74 386.86 275.28 464.38 362.28 464.38 376.88 386.86 293.74 386.86"/><polygon class="cls-8" points="396.77 306.18 382.44 382.25 470.64 382.25 481.88 306.18 396.77 306.18"/><polygon class="cls-8" points="366.97 464.38 458.5 464.38 469.96 386.86 381.57 386.86 366.97 464.38"/><polygon class="cls-8" points="308.21 306.18 246.01 306.18 224.04 382.25 290.1 382.25 308.21 306.18"/><polygon class="cls-8" points="222.71 386.86 200.31 464.38 270.55 464.38 289 386.86 222.71 386.86"/><polygon class="cls-8" points="325.95 231.66 267.54 231.66 247.35 301.57 309.3 301.57 325.95 231.66"/><path class="cls-9" d="M352.28,406.16a3.67,3.67,0,0,0-5.17-.57l-19.45,15.6-14-15.23a3.69,3.69,0,0,0-5.42,5l13.7,14.85-22.17,17.78a3.68,3.68,0,1,0,4.61,5.75l22.57-18.1L343.26,449a3.69,3.69,0,0,0,5.42-5l-16-17.36,19.05-15.28A3.67,3.67,0,0,0,352.28,406.16Z"/><path class="cls-9" d="M372.49,320.07a3.69,3.69,0,0,0-5.18-.57l-19.44,15.6-14-15.22a3.68,3.68,0,1,0-5.42,5l13.7,14.85-22.18,17.79a3.68,3.68,0,0,0,2.31,6.55,3.63,3.63,0,0,0,2.3-.81l22.58-18.1,16.35,17.73a3.69,3.69,0,0,0,5.2.21,3.69,3.69,0,0,0,.22-5.21l-16-17.35,19-15.28A3.68,3.68,0,0,0,372.49,320.07Z"/><path class="cls-9" d="M388.72,247a3.68,3.68,0,0,0-5.18-.57L364.1,262l-14-15.23a3.69,3.69,0,1,0-5.42,5l13.7,14.85-22.18,17.78a3.68,3.68,0,0,0,2.31,6.56,3.63,3.63,0,0,0,2.3-.81l22.57-18.1,16.36,17.73a3.68,3.68,0,1,0,5.41-5l-16-17.36,19-15.28A3.67,3.67,0,0,0,388.72,247Z"/><path class="cls-9" d="M470.33,245.31a3.69,3.69,0,0,0-5.18-.57l-19.45,15.6-14-15.22a3.68,3.68,0,1,0-5.41,5L439.94,265l-22.17,17.79a3.68,3.68,0,1,0,4.61,5.75L445,270.39l16.35,17.73a3.68,3.68,0,0,0,5.42-5l-16-17.36,19.05-15.28A3.69,3.69,0,0,0,470.33,245.31Z"/><path class="cls-9" d="M458.72,321.05a3.68,3.68,0,0,0-5.18-.56L434.1,336.08l-14-15.22a3.69,3.69,0,0,0-5.42,5l13.7,14.85-22.18,17.78a3.68,3.68,0,1,0,4.61,5.75l22.57-18.11,16.36,17.73a3.68,3.68,0,1,0,5.41-5l-16-17.36,19-15.28A3.69,3.69,0,0,0,458.72,321.05Z"/><path class="cls-9" d="M445,404.31a3.69,3.69,0,0,0-5.18-.57l-19.45,15.6-14-15.22a3.68,3.68,0,0,0-5.41,5L414.64,424l-22.17,17.79a3.68,3.68,0,0,0,4.61,5.74l22.57-18.1L436,447.12a3.69,3.69,0,1,0,5.42-5l-16-17.35,19-15.28A3.69,3.69,0,0,0,445,404.31Z"/><polygon class="cls-7" points="510.69 163.25 527.27 472.67 467.48 472.67 510.69 163.25"/><path class="cls-10" d="M323.76,241.42v75.84s-55-13.82-70.7-13.58Z"/><path class="cls-11" d="M323.76,241.42s-.62,52.56-7,68.78l-63.7-6.52S267.87,260,268.87,237Z"/><path class="cls-11" d="M289.65,252.42A7.38,7.38,0,1,0,297,245,7.38,7.38,0,0,0,289.65,252.42Z"/><path class="cls-12" d="M251.59,264.17h0c33.42,20.2,49.63,72.75,36.74,128-8,34.46-25.75,63-47.38,80.35h-53l62.23-209.18"/><path class="cls-5" d="M229.83,238.63c-.89-.21-1.77-.38-2.65-.55l-24.9-5.14L201,239c-35.22,8.67-67.78,46.39-79.56,96.9-12.39,53.12,2.1,103.73,32.91,125.53l-1,4.82,21.16,4.52,1.11.28c1.11.26,2.22.47,3.33.67l.19,0h0c43.87,7.46,90.26-35.45,104.83-98C299,309.61,274.71,249.1,229.83,238.63Z"/><ellipse class="cls-7" cx="181.24" cy="350.22" rx="119.32" ry="83.45" transform="translate(-201 447.18) rotate(-76.87)"/><ellipse class="cls-13" cx="181.24" cy="350.22" rx="105.86" ry="74.04" transform="translate(-201 447.18) rotate(-76.87)"/><path class="cls-14" d="M113.74,338.47c13.28-56.93,56.32-95.56,96.15-86.28a55.51,55.51,0,0,1,26.56,15c-8.32-10.13-18.87-17.23-31.17-20.1-39.82-9.29-82.87,29.34-96.15,86.28-9.9,42.45-.45,83.09,21.5,104.87C112,415.62,104.56,377.82,113.74,338.47Z"/><path class="cls-7" d="M204.19,378.41l-14.51-23.83a14.06,14.06,0,0,0,.89-2.61c1.24-5.3-.77-10.29-4.47-11.16l-.31,0h0l-3.15-.61-.27,1.2-19.32-43.27,13.74,46.6h2.12a13.12,13.12,0,0,0-1.76,4.16c-.84,3.6-.18,7.06,1.49,9.18l-.29,1.29,3.12.65.15,0c.11,0,.21,0,.31.05l.14,0h0a5,5,0,0,0,2-.14Z"/><path class="cls-5" d="M188,351.8c-1.24,5.33-5.28,8.95-9,8.08s-5.74-5.9-4.5-11.23,5.28-9,9-8.09S189.24,346.46,188,351.8Z"/><path class="cls-7" d="M163.41,449.31h0a1.6,1.6,0,0,1-1.3-1.85l3.37-18.92a1.58,1.58,0,0,1,1.85-1.29h0a1.59,1.59,0,0,1,1.29,1.85L165.25,448A1.58,1.58,0,0,1,163.41,449.31Z"/><path class="cls-7" d="M229.63,358.93h0a1.58,1.58,0,0,1,1.8-1.35l19,2.76a1.6,1.6,0,0,1,1.35,1.81h0a1.59,1.59,0,0,1-1.81,1.34l-19-2.75A1.59,1.59,0,0,1,229.63,358.93Z"/><path class="cls-7" d="M213.49,386h0a1.58,1.58,0,0,1,2.22-.4l15.79,11a1.6,1.6,0,0,1,.4,2.22h0a1.6,1.6,0,0,1-2.22.4l-15.79-11A1.6,1.6,0,0,1,213.49,386Z"/><path class="cls-7" d="M129.93,305.27h0a1.6,1.6,0,0,1,2.22-.4l15.79,11a1.59,1.59,0,0,1,.4,2.21h0a1.6,1.6,0,0,1-2.22.41l-15.79-11A1.59,1.59,0,0,1,129.93,305.27Z"/><path class="cls-7" d="M198,410.33h0a1.61,1.61,0,0,1,2.12.79l8,17.46a1.6,1.6,0,0,1-.79,2.11h0a1.59,1.59,0,0,1-2.11-.78l-8-17.46A1.6,1.6,0,0,1,198,410.33Z"/><path class="cls-7" d="M146.67,408.64h0a1.59,1.59,0,0,1-.13,2.25L132.21,423.7a1.6,1.6,0,0,1-2.25-.12h0a1.6,1.6,0,0,1,.13-2.26l14.33-12.8A1.6,1.6,0,0,1,146.67,408.64Z"/><path class="cls-7" d="M240.54,279.06h0a1.59,1.59,0,0,1-.13,2.25l-14.33,12.81a1.59,1.59,0,0,1-2.25-.13h0a1.59,1.59,0,0,1,.13-2.25l14.33-12.81A1.6,1.6,0,0,1,240.54,279.06Z"/><path class="cls-7" d="M136.53,376.06h0a1.58,1.58,0,0,1-1.22,1.89l-18.79,4a1.61,1.61,0,0,1-1.9-1.23h0a1.6,1.6,0,0,1,1.23-1.89l18.79-4A1.6,1.6,0,0,1,136.53,376.06Z"/><path class="cls-7" d="M254.87,322.31h0a1.6,1.6,0,0,1-1.23,1.89l-18.79,4A1.61,1.61,0,0,1,233,327h0a1.6,1.6,0,0,1,1.23-1.89l18.79-4A1.61,1.61,0,0,1,254.87,322.31Z"/><path class="cls-7" d="M155.06,276.35h0a1.6,1.6,0,0,1,2.12.78l8,17.46a1.6,1.6,0,0,1-.78,2.12h0a1.61,1.61,0,0,1-2.12-.79l-8-17.46A1.59,1.59,0,0,1,155.06,276.35Z"/><path class="cls-7" d="M116.12,340.41h0a1.58,1.58,0,0,1,1.81-1.35l19,2.76a1.59,1.59,0,0,1,1.35,1.8h0a1.6,1.6,0,0,1-1.81,1.35l-19-2.76A1.58,1.58,0,0,1,116.12,340.41Z"/><path class="cls-7" d="M197.49,276.54h0a1.58,1.58,0,0,1-1.29-1.85l3.36-18.92a1.59,1.59,0,0,1,1.85-1.29h0a1.58,1.58,0,0,1,1.29,1.85l-3.36,18.92A1.59,1.59,0,0,1,197.49,276.54Z"/><polygon class="cls-4" points="607.82 120.48 539.75 120.48 523.15 234.57 614.61 234.57 625.36 137.54 625.36 137.54 607.82 120.48"/><polygon class="cls-8" points="529.93 227.38 607.82 227.38 609.54 215.02 531.62 215.02 529.93 227.38"/><polygon class="cls-8" points="531.99 211.42 609.88 211.42 611.6 199.06 533.68 199.06 531.99 211.42"/><polygon class="cls-8" points="534.04 194.94 611.94 194.94 613.65 182.59 535.74 182.59 534.04 194.94"/><polygon class="cls-8" points="536.1 178.99 614 178.99 615.71 166.63 537.8 166.63 536.1 178.99"/><polygon class="cls-8" points="538.91 163.2 616.8 163.2 618.52 150.84 540.61 150.84 538.91 163.2"/><polygon class="cls-15" points="607.82 120.48 605.76 141.14 625.36 137.54 607.82 120.48"/><polygon class="cls-8" points="607.82 120.48 625.36 137.54 603.93 138.62 607.82 120.48"/><path class="cls-11" d="M566.5,80.57A5.59,5.59,0,1,1,560.92,75,5.58,5.58,0,0,1,566.5,80.57Z"/><path class="cls-11" d="M650.56,221.2a6.18,6.18,0,1,1-6.17-6.18A6.18,6.18,0,0,1,650.56,221.2Z"/><circle class="cls-11" cx="686.98" cy="342.36" r="5.4"/><path class="cls-11" d="M505.93,138.08a4.28,4.28,0,1,1-4.28-4.28A4.27,4.27,0,0,1,505.93,138.08Z"/><circle class="cls-11" cx="282.71" cy="140.85" r="10.04"/><path class="cls-11" d="M135.51,128.45a5,5,0,1,1-5-5A5,5,0,0,1,135.51,128.45Z"/><circle class="cls-11" cx="85.37" cy="269.48" r="6.43"/><path class="cls-11" d="M85.37,312.14a6,6,0,1,1-6-6A6,6,0,0,1,85.37,312.14Z"/></svg>